<?xml version="1.0" encoding="utf-8"?>
<!-- Generator: Adobe Illustrator 23.0.4, SVG Export Plug-In . SVG Version: 6.00 Build 0)  -->
<svg version="1.1" id="Layer_1" xmlns="http://www.w3.org/2000/svg" xmlns:xlink="http://www.w3.org/1999/xlink" x="0px" y="0px"
	 viewBox="0 0 512 512" style="enable-background:new 0 0 512 512;" xml:space="preserve">
<g>
	<g>
		<path d="M71.5,493.32c-4.09,0-8.21-0.11-12.36-0.36h0c-5.43-0.27-10.35-3.25-13.11-7.93l-1.33-2.27
			c-2.44-5.93-1.22-12.79,3.11-17.49c19.77-21.88,34.31-48.1,42.33-76.23c0.37-1.3,0.04-2.69-0.84-3.71
			c-35.04-40.58-54.2-91.65-54.2-144.91c0-17.6,1.99-34.66,5.91-50.72c11.94-50.88,41.65-95.91,83.61-126.66
			c37.93-28.65,83.53-43.86,131.74-43.86c65.54,0,127.32,28.9,169.56,79.26c42.17,50.29,59.7,116.63,48.13,182.06l0,0
			c-14.08,79.47-73.13,146.5-150.47,170.75c-41.08,12.93-82.85,13.91-124.24,2.99c-1.12-0.3-2.32-0.09-3.28,0.57
			C159.17,480.14,116.49,493.32,71.5,493.32z M60.51,465.41c0.05,0,0.09,0.04,0.14,0.04C60.61,465.44,60.56,465.41,60.51,465.41z
			 M256.35,46.77c-42.15,0-82.01,13.27-115.27,38.4c-36.82,26.99-62.77,66.35-73.24,110.96c-3.43,14.03-5.15,28.9-5.15,44.29
			c0,49.44,18.91,96.75,53.25,133.28l3.6,3.83c0.92,0.98,1.29,2.35,0.98,3.65l-1.18,5.1c-6.59,28.41-18.95,55.39-36.15,79.1
			c37.64-2.23,73.04-15.09,103.52-37.75l3.95-2.96c1.02-0.76,2.34-0.99,3.55-0.63l4.71,1.43c38.79,11.78,77.89,11.53,116.4-0.5
			c67.6-21.23,119.26-79.82,131.58-149.27l0,0c10.17-57.37-5.21-115.5-42.1-159.52C367.79,72.08,313.69,46.77,256.35,46.77z"/>
	</g>
	<g>
		<path d="M354.68,195.21H157.99c-7.62,0-13.79-6.18-13.79-13.79s6.18-13.79,13.79-13.79h196.68c7.62,0,13.79,6.18,13.79,13.79
			S362.29,195.21,354.68,195.21z"/>
	</g>
	<g>
		<path d="M354.68,254.25H157.99c-7.62,0-13.79-6.18-13.79-13.79c0-7.62,6.18-13.79,13.79-13.79h196.68
			c7.62,0,13.79,6.18,13.79,13.79C368.47,248.07,362.29,254.25,354.68,254.25z"/>
	</g>
	<g>
		<path d="M354.68,313.25H157.99c-7.62,0-13.79-6.18-13.79-13.79c0-7.62,6.18-13.79,13.79-13.79h196.68
			c7.62,0,13.79,6.18,13.79,13.79C368.47,307.07,362.29,313.25,354.68,313.25z"/>
	</g>
</g>
</svg>
